<mxfile host="app.diagrams.net" agent="Mozilla/5.0 (Windows NT 10.0; Win64; x64) AppleWebKit/537.36 (KHTML, like Gecko) Chrome/136.0.0.0 Safari/537.36" version="27.0.2">
  <diagram name="Page-1" id="2YBvvXClWsGukQMizWep">
    <mxGraphModel dx="1892" dy="596" grid="1" gridSize="10" guides="1" tooltips="1" connect="1" arrows="1" fold="1" page="1" pageScale="1" pageWidth="850" pageHeight="1100" math="0" shadow="0">
      <root>
        <mxCell id="0" />
        <mxCell id="1" parent="0" />
        <mxCell id="_IRGPWG0SRUrzGoiRAo4-1" value="API user&lt;div&gt;&lt;br&gt;&lt;/div&gt;" style="shape=umlActor;verticalLabelPosition=bottom;verticalAlign=top;html=1;outlineConnect=0;" vertex="1" parent="1">
          <mxGeometry x="-280" y="140" width="30" height="60" as="geometry" />
        </mxCell>
        <mxCell id="_IRGPWG0SRUrzGoiRAo4-5" value="&lt;div&gt;Operator&lt;/div&gt;" style="shape=umlActor;verticalLabelPosition=bottom;verticalAlign=top;html=1;outlineConnect=0;" vertex="1" parent="1">
          <mxGeometry x="-300" y="500" width="30" height="60" as="geometry" />
        </mxCell>
        <mxCell id="_IRGPWG0SRUrzGoiRAo4-6" value="MES" style="shape=umlLifeline;perimeter=lifelinePerimeter;whiteSpace=wrap;html=1;container=0;dropTarget=0;collapsible=0;recursiveResize=0;outlineConnect=0;portConstraint=eastwest;newEdgeStyle={&quot;edgeStyle&quot;:&quot;elbowEdgeStyle&quot;,&quot;elbow&quot;:&quot;vertical&quot;,&quot;curved&quot;:0,&quot;rounded&quot;:0};" vertex="1" parent="1">
          <mxGeometry x="-160" y="280" width="100" height="370" as="geometry" />
        </mxCell>
        <mxCell id="_IRGPWG0SRUrzGoiRAo4-7" value="" style="html=1;points=[];perimeter=orthogonalPerimeter;outlineConnect=0;targetShapes=umlLifeline;portConstraint=eastwest;newEdgeStyle={&quot;edgeStyle&quot;:&quot;elbowEdgeStyle&quot;,&quot;elbow&quot;:&quot;vertical&quot;,&quot;curved&quot;:0,&quot;rounded&quot;:0};" vertex="1" parent="_IRGPWG0SRUrzGoiRAo4-6">
          <mxGeometry x="45" y="70" width="10" height="190" as="geometry" />
        </mxCell>
        <mxCell id="_IRGPWG0SRUrzGoiRAo4-10" value="MES API" style="shape=umlLifeline;perimeter=lifelinePerimeter;whiteSpace=wrap;html=1;container=0;dropTarget=0;collapsible=0;recursiveResize=0;outlineConnect=0;portConstraint=eastwest;newEdgeStyle={&quot;edgeStyle&quot;:&quot;elbowEdgeStyle&quot;,&quot;elbow&quot;:&quot;vertical&quot;,&quot;curved&quot;:0,&quot;rounded&quot;:0};" vertex="1" parent="1">
          <mxGeometry x="40" y="40" width="100" height="610" as="geometry" />
        </mxCell>
        <mxCell id="_IRGPWG0SRUrzGoiRAo4-11" value="" style="html=1;points=[];perimeter=orthogonalPerimeter;outlineConnect=0;targetShapes=umlLifeline;portConstraint=eastwest;newEdgeStyle={&quot;edgeStyle&quot;:&quot;elbowEdgeStyle&quot;,&quot;elbow&quot;:&quot;vertical&quot;,&quot;curved&quot;:0,&quot;rounded&quot;:0};" vertex="1" parent="_IRGPWG0SRUrzGoiRAo4-10">
          <mxGeometry x="45" y="70" width="10" height="190" as="geometry" />
        </mxCell>
        <mxCell id="_IRGPWG0SRUrzGoiRAo4-12" value="Чтение списка заказов (get)" style="html=1;verticalAlign=bottom;startArrow=oval;endArrow=block;startSize=8;edgeStyle=elbowEdgeStyle;elbow=vertical;curved=0;rounded=0;" edge="1" parent="1" target="_IRGPWG0SRUrzGoiRAo4-10">
          <mxGeometry relative="1" as="geometry">
            <mxPoint x="-240" y="180" as="sourcePoint" />
            <mxPoint x="-135" y="180" as="targetPoint" />
          </mxGeometry>
        </mxCell>
        <mxCell id="_IRGPWG0SRUrzGoiRAo4-13" value="Чтение списка заказов (get)" style="html=1;verticalAlign=bottom;startArrow=oval;endArrow=block;startSize=8;edgeStyle=elbowEdgeStyle;elbow=vertical;curved=0;rounded=0;" edge="1" parent="1" target="_IRGPWG0SRUrzGoiRAo4-10">
          <mxGeometry relative="1" as="geometry">
            <mxPoint x="-100" y="520" as="sourcePoint" />
            <mxPoint x="5" y="520" as="targetPoint" />
          </mxGeometry>
        </mxCell>
        <mxCell id="_IRGPWG0SRUrzGoiRAo4-8" value="Запрос" style="html=1;verticalAlign=bottom;startArrow=oval;endArrow=block;startSize=8;edgeStyle=elbowEdgeStyle;elbow=vertical;curved=0;rounded=0;exitX=1;exitY=0.3333333333333333;exitDx=0;exitDy=0;exitPerimeter=0;" edge="1" parent="1" target="_IRGPWG0SRUrzGoiRAo4-7" source="_IRGPWG0SRUrzGoiRAo4-5">
          <mxGeometry relative="1" as="geometry">
            <mxPoint x="-220" y="520" as="sourcePoint" />
          </mxGeometry>
        </mxCell>
        <mxCell id="_IRGPWG0SRUrzGoiRAo4-15" value="Cache" style="shape=umlLifeline;perimeter=lifelinePerimeter;whiteSpace=wrap;html=1;container=0;dropTarget=0;collapsible=0;recursiveResize=0;outlineConnect=0;portConstraint=eastwest;newEdgeStyle={&quot;edgeStyle&quot;:&quot;elbowEdgeStyle&quot;,&quot;elbow&quot;:&quot;vertical&quot;,&quot;curved&quot;:0,&quot;rounded&quot;:0};" vertex="1" parent="1">
          <mxGeometry x="230" y="40" width="100" height="610" as="geometry" />
        </mxCell>
        <mxCell id="_IRGPWG0SRUrzGoiRAo4-16" value="" style="html=1;points=[];perimeter=orthogonalPerimeter;outlineConnect=0;targetShapes=umlLifeline;portConstraint=eastwest;newEdgeStyle={&quot;edgeStyle&quot;:&quot;elbowEdgeStyle&quot;,&quot;elbow&quot;:&quot;vertical&quot;,&quot;curved&quot;:0,&quot;rounded&quot;:0};" vertex="1" parent="_IRGPWG0SRUrzGoiRAo4-15">
          <mxGeometry x="45" y="70" width="10" height="190" as="geometry" />
        </mxCell>
        <mxCell id="_IRGPWG0SRUrzGoiRAo4-18" value="Проверка данных в кеше" style="html=1;verticalAlign=bottom;startArrow=oval;endArrow=block;startSize=8;edgeStyle=elbowEdgeStyle;elbow=vertical;curved=0;rounded=0;" edge="1" parent="1">
          <mxGeometry relative="1" as="geometry">
            <mxPoint x="100" y="310" as="sourcePoint" />
            <mxPoint x="280" y="310" as="targetPoint" />
          </mxGeometry>
        </mxCell>
        <mxCell id="_IRGPWG0SRUrzGoiRAo4-19" value="Возврат закешированных данных" style="html=1;verticalAlign=bottom;startArrow=oval;endArrow=block;startSize=8;edgeStyle=elbowEdgeStyle;elbow=vertical;curved=0;rounded=0;" edge="1" parent="1">
          <mxGeometry relative="1" as="geometry">
            <mxPoint x="279.5" y="360" as="sourcePoint" />
            <mxPoint x="89.5" y="360" as="targetPoint" />
          </mxGeometry>
        </mxCell>
        <mxCell id="_IRGPWG0SRUrzGoiRAo4-21" value="MES DB" style="shape=umlLifeline;perimeter=lifelinePerimeter;whiteSpace=wrap;html=1;container=0;dropTarget=0;collapsible=0;recursiveResize=0;outlineConnect=0;portConstraint=eastwest;newEdgeStyle={&quot;edgeStyle&quot;:&quot;elbowEdgeStyle&quot;,&quot;elbow&quot;:&quot;vertical&quot;,&quot;curved&quot;:0,&quot;rounded&quot;:0};" vertex="1" parent="1">
          <mxGeometry x="425" y="40" width="100" height="600" as="geometry" />
        </mxCell>
        <mxCell id="_IRGPWG0SRUrzGoiRAo4-22" value="" style="html=1;points=[];perimeter=orthogonalPerimeter;outlineConnect=0;targetShapes=umlLifeline;portConstraint=eastwest;newEdgeStyle={&quot;edgeStyle&quot;:&quot;elbowEdgeStyle&quot;,&quot;elbow&quot;:&quot;vertical&quot;,&quot;curved&quot;:0,&quot;rounded&quot;:0};" vertex="1" parent="_IRGPWG0SRUrzGoiRAo4-21">
          <mxGeometry x="45" y="70" width="10" height="190" as="geometry" />
        </mxCell>
        <mxCell id="_IRGPWG0SRUrzGoiRAo4-23" value="Получение данных из БД если в кеше их нет" style="html=1;verticalAlign=bottom;startArrow=oval;endArrow=block;startSize=8;edgeStyle=elbowEdgeStyle;elbow=vertical;curved=0;rounded=0;" edge="1" parent="1" target="_IRGPWG0SRUrzGoiRAo4-21">
          <mxGeometry relative="1" as="geometry">
            <mxPoint x="100" y="420" as="sourcePoint" />
            <mxPoint x="280" y="420" as="targetPoint" />
          </mxGeometry>
        </mxCell>
        <mxCell id="_IRGPWG0SRUrzGoiRAo4-24" value="Запись полученных данных в кеш" style="html=1;verticalAlign=bottom;startArrow=oval;endArrow=block;startSize=8;edgeStyle=elbowEdgeStyle;elbow=vertical;curved=0;rounded=0;" edge="1" parent="1">
          <mxGeometry relative="1" as="geometry">
            <mxPoint x="470" y="460" as="sourcePoint" />
            <mxPoint x="280" y="460" as="targetPoint" />
          </mxGeometry>
        </mxCell>
        <mxCell id="_IRGPWG0SRUrzGoiRAo4-26" value="Возврат данных клиенту" style="html=1;verticalAlign=bottom;startArrow=oval;endArrow=block;startSize=8;edgeStyle=elbowEdgeStyle;elbow=vertical;curved=0;rounded=0;" edge="1" parent="1">
          <mxGeometry relative="1" as="geometry">
            <mxPoint x="80" y="460" as="sourcePoint" />
            <mxPoint x="-110" y="460" as="targetPoint" />
          </mxGeometry>
        </mxCell>
        <mxCell id="_IRGPWG0SRUrzGoiRAo4-27" value="Запись полученных данных в кеш" style="html=1;verticalAlign=bottom;startArrow=oval;endArrow=block;startSize=8;edgeStyle=elbowEdgeStyle;elbow=vertical;curved=0;rounded=0;" edge="1" parent="1">
          <mxGeometry relative="1" as="geometry">
            <mxPoint x="470" y="490" as="sourcePoint" />
            <mxPoint x="280" y="490" as="targetPoint" />
          </mxGeometry>
        </mxCell>
        <mxCell id="_IRGPWG0SRUrzGoiRAo4-28" value="Возврат данных клиенту" style="html=1;verticalAlign=bottom;startArrow=oval;endArrow=block;startSize=8;edgeStyle=elbowEdgeStyle;elbow=vertical;curved=0;rounded=0;" edge="1" parent="1">
          <mxGeometry relative="1" as="geometry">
            <mxPoint x="80" y="210" as="sourcePoint" />
            <mxPoint x="-240" y="210" as="targetPoint" />
          </mxGeometry>
        </mxCell>
        <mxCell id="_IRGPWG0SRUrzGoiRAo4-30" value="Изменение статуса заказа (put)" style="html=1;verticalAlign=bottom;startArrow=oval;endArrow=block;startSize=8;edgeStyle=elbowEdgeStyle;elbow=horizontal;curved=0;rounded=0;" edge="1" parent="1">
          <mxGeometry relative="1" as="geometry">
            <mxPoint x="-240" y="150" as="sourcePoint" />
            <mxPoint x="90" y="150" as="targetPoint" />
            <mxPoint as="offset" />
          </mxGeometry>
        </mxCell>
        <mxCell id="_IRGPWG0SRUrzGoiRAo4-31" value="Изменение статуса заказа (put)" style="html=1;verticalAlign=bottom;startArrow=oval;endArrow=block;startSize=8;edgeStyle=elbowEdgeStyle;elbow=vertical;curved=0;rounded=0;" edge="1" parent="1">
          <mxGeometry relative="1" as="geometry">
            <mxPoint x="-100" y="560" as="sourcePoint" />
            <mxPoint x="90" y="560" as="targetPoint" />
          </mxGeometry>
        </mxCell>
        <mxCell id="_IRGPWG0SRUrzGoiRAo4-32" value="Записб об изменении статуса заказа" style="html=1;verticalAlign=bottom;startArrow=oval;endArrow=block;startSize=8;edgeStyle=elbowEdgeStyle;elbow=vertical;curved=0;rounded=0;" edge="1" parent="1" target="_IRGPWG0SRUrzGoiRAo4-21">
          <mxGeometry relative="1" as="geometry">
            <mxPoint x="90" y="560" as="sourcePoint" />
            <mxPoint x="280" y="560" as="targetPoint" />
          </mxGeometry>
        </mxCell>
        <mxCell id="_IRGPWG0SRUrzGoiRAo4-34" value="Запись измененных данных в кеш" style="html=1;verticalAlign=bottom;startArrow=oval;endArrow=block;startSize=8;edgeStyle=elbowEdgeStyle;elbow=vertical;curved=0;rounded=0;" edge="1" parent="1">
          <mxGeometry relative="1" as="geometry">
            <mxPoint x="470" y="600" as="sourcePoint" />
            <mxPoint x="280" y="600" as="targetPoint" />
          </mxGeometry>
        </mxCell>
      </root>
    </mxGraphModel>
  </diagram>
</mxfile>
